# AST/ASF file generated using VICON BodyLanguage
# -----------------------------------------------
:version 1.10
:name VICON
:units
  mass 1.0
  length 0.45
  angle deg
:documentation
   .ast/.asf automatically generated from VICON data using
   VICON BodyBuilder and BodyLanguage model FoxedUp or BRILLIANT.MOD
:root
   order TX TY TZ RX RY RZ
   axis XYZ
   position 0 0 0  
   orientation 0 0 0 
:bonedata
  begin
     id 1 
     name lhipjoint
     direction 0.612567 -0.751349 0.245431 
     length 2.42285 
     axis 0 0 0  XYZ
  end
  begin
     id 2 
     name lfemur
     direction 0.34202 -0.939693 0  
     length 7.11304  
     axis 0 0 20  XYZ
    dof rx ry rz
    limits (-160.0 20.0)
           (-70.0 70.0)
           (-60.0 70.0)
  end
  begin
     id 3 
     name ltibia
     direction 0.34202 -0.939693 0   
     length 7.84529   
     axis 0 0 20   XYZ
    dof rx
    limits (-10.0 170.0)
  end
  begin
     id 4 
     name lfoot
     direction 0.0779239 -0.214094 0.9737   
     length 1.97176   
     axis -90 7.62852e-016 20   XYZ
    dof rx rz
    limits (-45.0 90.0)
           (-70.0 20.0)
  end
  begin
     id 5 
     name ltoes
     direction 1.53565e-011 -4.21709e-011 1   
     length 0.993197   
     axis -90 7.62852e-016 20   XYZ
    dof rx
    limits (-90.0 20.0)
  end
  begin
     id 6 
     name rhipjoint
     direction -0.665722 -0.709315 0.231701   
     length 2.56642  
     axis 0 0 0  XYZ 
  end
  begin
     id 7 
     name rfemur
     direction -0.34202 -0.939693 0   
     length 7.32108   
     axis 0 0 -20   XYZ
    dof rx ry rz
    limits (-160.0 20.0)
           (-70.0 70.0)
           (-70.0 60.0)
  end
  begin
     id 8 
     name rtibia
     direction -0.34202 -0.939693 0   
     length 7.81254   
     axis 0 0 -20   XYZ
    dof rx
    limits (-10.0 170.0)
 end
 begin
     id 9 
     name rfoot
     direction -0.0832806 -0.228812 0.969902   
     length 2.08278  
     axis -90 -7.62852e-016 -20   XYZ
    dof rx rz
    limits (-45.0 90.0)
           (-20.0 70.0)
  end
  begin
     id 10 
     name rtoes
     direction -1.53589e-011 -4.22086e-011 1   
     length 1.04609   
     axis -90 -7.62852e-016 -20   XYZ
    dof rx
    limits (-90.0 20.0)
  end
  begin
     id 11 
     name lowerback
     direction -0.00506013 0.988403 -0.151766   
     length 2.01978   
     axis 0 0 0   XYZ
    dof rx ry rz
    limits (-20.0 45.0)
           (-30.0 30.0)
           (-30.0 30.0)
  end
  begin
     id 12 
     name upperback
     direction -0.00836389 0.99968 0.0238859   
     length 2.01276   
     axis 0 0 0   XYZ
    dof rx ry rz
    limits (-20.0 45.0)
           (-30.0 30.0)
           (-30.0 30.0)
  end
  begin
     id 13 
     name thorax
     direction -0.00684136 0.995386 0.0957043   
     length 2.07303   
     axis 0 0 0   XYZ
    dof rx ry rz
    limits (-20.0 45.0)
           (-30.0 30.0)
           (-30.0 30.0)
  end
  begin
     id 14 
     name lowerneck
     direction -0.0161045 0.999661 0.0204485   
     length 1.91243   
     axis 0 0 0   XYZ
    dof rx ry rz
    limits (-20.0 45.0)
           (-30.0 30.0)
           (-30.0 30.0)
  end
  begin
     id 15 
     name upperneck
     direction 0.0553583 0.990946 -0.122319   
     length 1.91574   
     axis 0 0 0   XYZ
    dof rx ry rz
    limits (-20.0 45.0)
           (-30.0 30.0)
           (-30.0 30.0)
  end
  begin
     id 16
     name head
     direction 0.0180273 0.998839 -0.0446756  
     length 1.92693  
     axis 0 0 0   XYZ
    dof rx ry rz
    limits (-20.0 45.0)
           (-30.0 30.0)
           (-30.0 30.0)
  end
  begin
     id 17 
     name lclavicle
     direction 0.945646 0.319323 -0.0615358  
     length 4.0076  
     axis 0 0 0   XYZ
    dof ry rz
    limits (-20.0 10.0)
           (0.0 20.0)
  end
  begin
     id 18 
     name lhumerus
     direction 1 -4.48967e-011 -2.79996e-027   
     length 5.64147   
     axis 180 -30 -90   XYZ
    dof rx ry rz
    limits (-60.0 90.0)
           (-90.0 90.0)
           (-90.0 90.0)
  end
  begin
     id 19
     name lradius
     direction 1 -4.48976e-011 -9.5122e-027   
     length 2.86444   
     axis 180 -30 -90   XYZ
    dof rx
    limits (-10.0 170.0)
  end
  begin
     id 20
     name lwrist
     direction 1 -4.48983e-011 -1.24047e-026   
     length 1.43222   
     axis 9.05591e-015 90 90   XYZ
    dof ry
    limits (-180.0 0.0)
 end
  begin
     id 21 
     name lhand
     direction 1 -4.4892e-011 -2.48094e-026   
     length 0.722123   
     axis 1.58305e-014 90 90   XYZ
    dof rx rz
    limits (-90.0 90.0)
           (-45.0 45.0)
  end
  begin
     id 22 
     name lfingers
     direction 1 -4.48895e-011 -4.96187e-026   
     length 0.582194   
     axis 3.1661e-014 90 90   XYZ
    dof rx
    limits (0.0 90.0)
  end
  begin
     id 23
     name lthumb
     direction 0.707107 -6.34961e-011 0.707107   
     length 0.835918   
     axis -90 45 2.85299e-015   XYZ
    dof rx rz
    limits (-45.0 45.0)
           (-45.0 45.0)
  end
  begin
     id 24 
     name rclavicle
     direction -0.932635 0.324218 -0.15835   
     length 3.65819  
     axis 0 0 0   XYZ 
    dof ry rz
    limits (-10.0 20.0)
           (-20.0 0.0)
  end
  begin
     id 25 
     name rhumerus
     direction -1 -4.48965e-011 -4.02296e-027  
     length 5.44729   
     axis 180 30 90   XYZ
    dof rx ry rz
    limits (-90.0 60.0)
           (-90.0 90.0)
           (-90.0 90.0)
  end
  begin
     id 26 
     name rradius
     direction -1 -4.48957e-011 -8.81087e-027   
     length 3.08821   
     axis 180 30 90   XYZ
    dof rx
    limits (-10.0 170.0)
  end
  begin
     id 27 
     name rwrist
     direction -1 -4.49015e-011 -1.24047e-026   
     length 1.5441   
     axis 9.05591e-015 -90 -90   XYZ
    dof ry
    limits (-180.0 0.0)
  end
  begin
     id 28
     name rhand
     direction -1 -4.4891e-011 -2.48094e-026   
     length 0.821049   
     axis 1.58305e-014 -90 -90   XYZ
    dof rx rz
    limits (-90.0 90.0)
           (-45.0 45.0)
  end
  begin
     id 29
     name rfingers
     direction -1 -4.48985e-011 -4.96187e-026   
     length 0.661951   
     axis 3.1661e-014 -90 -90   XYZ
    dof rx
    limits (0.0 90.0)
  end
  begin
     id 30
     name rthumb
     direction -0.707107 -6.34906e-011 0.707107   
     length 0.950433   
     axis -90 -45 -2.85299e-015   XYZ
    dof rx rz
    limits (-45.0 45.0)
           (-45.0 45.0)
  end
:hierarchy
  begin
    root lhipjoint rhipjoint lowerback
    lhipjoint lfemur
    lfemur ltibia
    ltibia lfoot
    lfoot ltoes
    rhipjoint rfemur
    rfemur rtibia
    rtibia rfoot
    rfoot rtoes
    lowerback upperback
    upperback thorax
    thorax lowerneck lclavicle rclavicle
    lowerneck upperneck
    upperneck head
    lclavicle lhumerus
    lhumerus lradius
    lradius lwrist
    lwrist lhand lthumb
    lhand lfingers
    rclavicle rhumerus
    rhumerus rradius
    rradius rwrist
    rwrist rhand rthumb
    rhand rfingers
  end

#!OML:ASF F:\VICON\USERDATA\INSTALL\rory3\rory3.ASF
:FULLY-SPECIFIED
:DEGREES
3304
root 3.49439 17.5162 -0.174798 582.48 81.7639 586.014
lowerback 4.9664 -1.88721 -9.89604
upperback -4.32722 -3.42513 -7.91635
thorax -7.32644 -1.22118 -2.52281
lowerneck 1.52686 -16.5734 -10.0951
upperneck 7.73172 -23.9966 17.7348
head 5.48135 -11.5538 5.38886
rclavicle 1.11319e-014 7.63333e-014
rhumerus -24.3463 23.1057 -75.703
rradius 49.8861
rwrist 31.3455
rhand -36.7057 22.1229
rfingers 7.12502
rthumb -9.79067 -7.62945
lclavicle 1.11319e-014 7.63333e-014
lhumerus 2.2572 -73.6911 92.0721
lradius 92.9671
lwrist 31.9422
lhand -28.2766 2.10709
lfingers 7.12502
lthumb -1.65306 32.0804
rfemur 7.52736 -4.52881 24.0296
rtibia 10.2096
rfoot -19.873 -9.45397
rtoes -0.682524
lfemur -4.54935 -3.03646 -10.6753
ltibia 24.7525
lfoot -16.0105 -7.44619
ltoes -2.53714
3305
root 3.49479 17.5183 -0.182378 582.877 81.8114 586.402
lowerback 4.9438 -1.8505 -10.0074
upperback -4.37664 -3.38472 -7.91264
thorax -7.363 -1.19239 -2.46428
lowerneck 1.60958 -16.6083 -10.1605
upperneck 7.73889 -24.0508 17.715
head 5.48288 -11.5877 5.39094
rclavicle -1.11319e-014 0
rhumerus -24.1669 23.0766 -75.498
rradius 49.4465
rwrist 31.3562
rhand -36.7792 21.932
rfingers 7.12502
rthumb -9.86163 -7.817
lclavicle -1.11319e-014 0
lhumerus 3.01868 -73.94 91.6174
lradius 93.0262
lwrist 32.2398
lhand -28.2277 2.03399
lfingers 7.12502
lthumb -1.60581 32.0077
rfemur 7.64362 -4.434 24.022
rtibia 9.95401
rfoot -19.7228 -9.63067
rtoes -1.13867
lfemur -4.54348 -3.06585 -10.7073
ltibia 24.7643
lfoot -16.0512 -7.38806
ltoes -2.19222
3306
root 3.49752 17.5196 -0.191969 582.453 81.8564 585.97
lowerback 4.87057 -1.86284 -10.0817
upperback -4.37795 -3.39211 -8.01402
thorax -7.32512 -1.19271 -2.53448
lowerneck 1.6602 -16.6286 -10.0636
upperneck 7.68963 -24.072 17.6984
head 5.44846 -11.601 5.37816
rclavicle 0 -4.45278e-014
rhumerus -23.9428 23.0514 -75.3953
rradius 49.1147
rwrist 31.296
rhand -36.7495 22.142
rfingers 7.12502
rthumb -9.83293 -7.60841
lclavicle 0 -4.45278e-014
lhumerus 3.86954 -74.2207 90.9272
lradius 93.1432
lwrist 32.3208
lhand -28.3302 2.14725
lfingers 7.12502
lthumb -1.7048 32.1202
rfemur 7.77727 -4.41686 23.9003
rtibia 9.72696
rfoot -19.6312 -9.78041
rtoes -1.49213
lfemur -4.52776 -3.10796 -10.8402
ltibia 24.7781
lfoot -16.1274 -7.28093
ltoes -2.65625
3307
root 3.49873 17.52 -0.200552 582.763 81.8257 586.283
lowerback 4.843 -1.87827 -10.0587
upperback -4.3708 -3.40525 -8.05816
thorax -7.30501 -1.20139 -2.59378
lowerneck 1.66359 -16.6517 -9.93592
upperneck 7.59894 -24.0846 17.6538
head 5.40048 -11.6099 5.35147
rclavicle 1.82882e-014 6.36111e-014
rhumerus -23.7117 23.0692 -75.274
rradius 48.8464
rwrist 31.2803
rhand -36.7029 22.3199
rfingers 7.12502
rthumb -9.78803 -7.43267
lclavicle 1.82882e-014 6.36111e-014
lhumerus 4.73779 -74.3959 90.2451
lradius 93.2247
lwrist 32.2157
lhand -28.3608 2.39602
lfingers 7.12502
lthumb -1.73433 32.3687
rfemur 7.88865 -4.38698 23.9302
rtibia 9.51179
rfoot -19.5824 -9.82874
rtoes -1.04529
lfemur -4.52607 -3.14275 -10.8189
ltibia 24.8096
lfoot -16.1873 -7.22218
ltoes -2.96947
3308
root 3.49758 17.5194 -0.207025 583.617 81.7587 587.121
lowerback 4.82989 -1.89144 -9.92024
upperback -4.38295 -3.41307 -8.09455
thorax -7.31953 -1.21294 -2.70818
lowerneck 1.52173 -16.662 -9.87131
upperneck 7.7143 -24.1054 17.5997
head 5.44753 -11.6067 5.30887
rclavicle 4.77083e-015 3.81667e-014
rhumerus -23.5496 23.1975 -75.1905
rradius 48.6735
rwrist 31.1622
rhand -36.8041 22.4942
rfingers 7.12502
rthumb -9.88566 -7.25374
lclavicle 4.77083e-015 3.81667e-014
lhumerus 5.48751 -74.5806 89.6383
lradius 93.2409
lwrist 32.0569
lhand -28.4446 2.36557
lfingers 7.12502
lthumb -1.8153 32.3376
rfemur 7.97471 -4.33262 24.0618
rtibia 9.28042
rfoot -19.5522 -9.77536
rtoes -0.4091
lfemur -4.57839 -3.14147 -10.6951
ltibia 24.8656
lfoot -16.2378 -7.1762
ltoes -3.00591
3309
root 3.49646 17.5193 -0.214758 584.659 81.6897 588.13
lowerback 4.68908 -1.89633 -9.7633
upperback -4.345 -3.38261 -8.09487
thorax -7.20345 -1.21191 -2.79872
lowerneck 1.31427 -16.6732 -9.86398
upperneck 7.81474 -24.1244 17.5576
head 5.50917 -11.6009 5.27065
rclavicle -5.56597e-015 3.18055e-015
rhumerus -23.3385 23.3537 -74.9937
rradius 48.6082
rwrist 31.0169
rhand -36.6488 22.6979
rfingers 7.12502
rthumb -9.73577 -7.05707
lclavicle -5.56597e-015 3.18055e-015
lhumerus 6.66083 -74.7558 88.6563
lradius 93.3152
lwrist 31.9782
lhand -28.5733 2.27808
lfingers 7.12502
lthumb -1.93959 32.249
rfemur 8.07582 -4.25889 24.2192
rtibia 8.97619
rfoot -19.3748 -9.94321
rtoes -0.85618
lfemur -4.66824 -3.07849 -10.542
ltibia 24.9577
lfoot -16.3084 -7.18752
ltoes -3.18507
3310
root 3.49707 17.5191 -0.221852 584.79 81.7224 588.229
lowerback 4.52516 -1.872 -9.98652
upperback -4.28539 -3.3307 -7.9885
thorax -7.02569 -1.17994 -2.56922
lowerneck 1.26994 -16.6826 -10.0011
upperneck 7.64661 -24.1091 17.5347
head 5.47593 -11.6051 5.28199
rclavicle -1.27222e-014 -1.74931e-013
rhumerus -23.0465 23.5293 -74.5525
rradius 48.4591
rwrist 30.9623
rhand -36.3171 22.7191
rfingers 7.12502
rthumb -9.41581 -7.05058
lclavicle -1.27222e-014 -1.74931e-013
lhumerus 8.09434 -74.8546 87.6747
lradius 93.3991
lwrist 32.0856
lhand -28.6049 2.24141
lfingers 7.12502
lthumb -1.97014 32.2121
rfemur 8.18876 -4.20131 24.1876
rtibia 8.69612
rfoot -19.2821 -10.0068
rtoes -1.09843
lfemur -4.73238 -3.04766 -10.5733
ltibia 25.0404
lfoot -16.351 -7.24233
ltoes -3.15425
